<?xml version="1.0" encoding="utf-8" ?>
<svg xmlns="http://www.w3.org/2000/svg" xmlns:xlink="http://www.w3.org/1999/xlink" width="1024" height="1024">
	<path fill="#2F3942" d="M494.821 113.949C714.264 104.387 899.966 274.408 909.75 493.841C919.535 713.273 749.702 899.148 530.279 909.155C310.541 919.176 124.342 749.046 114.544 529.298C104.746 309.551 275.064 123.524 494.821 113.949ZM138.169 561.442C138.818 564.032 139.507 566.605 140.22 569.178L140.22 573.764C140.82 577.096 141.426 580.415 142.191 583.714L142.191 586.416C143.007 589.879 144.083 593.168 145.278 596.518L145.278 600.688C146.424 603.903 147.671 607.02 149.058 610.139L149.058 613.862C150.048 616.367 151.696 618.582 152.615 621.062L152.615 625.285C153.526 627.973 154.607 630.695 155.355 633.427L157.263 638.839C158.597 641.721 160.467 644.287 161.781 647.135C161.753 648.308 161.731 649.464 161.781 650.637L165.93 660.077L165.93 663.366C167.581 666.167 170.146 668.179 171.659 670.998C171.667 672.036 171.68 673.073 171.659 674.111C173.057 676.69 174.439 679.242 176.069 681.686C176.587 682.731 177.053 683.963 177.757 684.886C179.039 687.379 180.28 689.897 181.733 692.296C182.586 693.672 183.394 695.244 184.404 696.501C185.483 699.085 186.465 701.66 188.142 703.929C188.647 704.785 189.122 705.803 189.743 706.571C191.393 709.426 193.179 712.078 195.123 714.741C195.607 715.488 196.068 716.25 196.623 716.946C198.144 719.38 199.619 721.8 200.969 724.335C201.676 725.437 202.247 726.426 203.219 727.32C204.933 730.173 207.703 732.223 210.159 734.413C210.156 735.055 210.111 735.829 210.159 736.465C212.002 739.144 214.502 741.233 216.997 743.289L219.607 747.248C221.024 749.381 222.36 751.729 224.125 753.59C225.159 754.498 226.139 755.46 227.318 756.175C228.571 757.921 229.774 759.879 231.258 761.432C231.967 762.756 232.662 764.06 233.503 765.308C235.814 767.705 238.123 770.071 240.205 772.674L243.88 775.331C245.932 776.858 248.006 778.342 250.101 779.809C250.619 780.837 251.105 781.852 251.79 782.783C254.14 785.004 256.366 787.392 258.757 789.559C260.304 790.303 261.901 791.228 263.514 791.796C265.161 793.699 266.617 795.269 268.807 796.586C270.21 797.996 271.608 799.66 273.171 800.875C275.064 802.501 276.94 804.132 278.928 805.641C280.256 806.891 281.549 808.058 283.032 809.122C285.725 811.439 288.757 813.177 291.932 814.753C293.3 816.05 294.811 817.142 296.319 818.268C298.526 820.19 300.69 821.806 303.192 823.326C304.752 824.693 306.308 825.94 308.024 827.107C310.339 828.525 312.647 830.065 315.031 831.357C317.097 832.821 319.297 833.931 321.54 835.091C324.353 836.605 326.863 838.515 329.43 840.405C331.718 841.205 334.018 841.911 336.112 843.152L343.377 846.599C346.13 848.073 348.966 849.473 351.651 851.062L358.659 855.213L365.521 857.212L374.091 860.617C376.469 861.614 378.816 862.642 381.294 863.372C383.997 864.435 386.691 865.528 389.45 866.441C392.711 867.525 395.498 868.806 398.338 870.783C401.149 871.137 404.654 871.234 407.282 872.215C409.94 873.122 412.569 873.839 415.303 874.478L423.002 876.824C426.397 877.367 429.616 878.113 432.922 879.057C435.791 879.645 438.711 880.121 441.464 881.139C444.976 881.705 448.507 882.391 452.034 882.836C455.362 883.333 458.689 883.772 462.031 884.167C465.209 884.645 468.245 885.241 471.346 886.091C473.452 886.157 475.582 886.312 477.681 886.091C483.12 886.971 488.687 887.385 494.167 887.971C501.875 888.899 510.155 887.764 517.95 887.971C521.708 887.69 525.604 887.933 529.376 887.971C532.765 887.669 536.714 886.972 539.994 886.091C544.852 885.976 549.723 886.07 554.582 886.091C560.133 884.738 565.929 884.35 571.392 882.836C575.212 881.991 579.199 881.639 583.081 881.139C588.869 879.544 594.78 878.468 600.556 876.824C607.373 874.569 614.457 872.885 621.34 870.783C626.53 870.348 632.936 867.201 639.03 866.441C646.386 862.069 654.74 858.608 662.596 855.213C669.226 853.989 688.064 844.546 693.643 840.405C730.962 820.204 778.19 781.793 804.849 747.248C809.704 743.279 813.915 735.485 817.293 730.172C822.997 724.404 827.449 717.748 831.836 710.973C834.052 707.808 835.956 703.837 837.738 700.401C839.944 696.206 842.392 692.154 844.814 688.083C846.8 684.706 848.265 680.51 849.92 676.912C852.5 672.987 854.426 668.588 856.294 664.293C857.471 662.287 857.886 659.618 858.47 657.371C860.758 653.28 863.011 649.19 865.132 645.008C866.184 641.953 866.253 638.854 867.539 635.767C868.615 631.762 870.754 627.689 872.366 623.85C873.605 620.553 874.688 617.21 875.778 613.862C876.498 610.356 877.411 606.923 878.354 603.471C878.972 601.186 879.401 598.835 879.891 596.518C880.859 593.079 882.246 589.749 883.527 586.416C883.317 584.063 883.422 581.765 883.527 579.413C884.151 576.897 885.032 574.384 885.785 571.9L885.785 567.612C886.165 564.721 887.102 561.713 887.75 558.856L887.75 555.574C881.109 556.139 874.219 555.515 867.539 555.574C868.885 551.546 870.466 547.863 872.366 544.064C872.515 540.623 872.382 536.838 873.732 533.618C876.532 532.518 886.555 521.722 890.063 518.802L890.063 504.391C890.408 499.675 890.682 494.995 890.063 490.291L890.063 487.91L890.063 480.714L887.75 470.04C887.897 467.72 887.952 465.548 887.75 463.224C887.101 460.242 886.506 457.235 885.785 454.271C882.43 457.744 879.201 461.361 875.778 464.762C877.1 451.365 890.837 470.761 881.253 428.761C844.731 268.702 706.154 152.505 543.196 136.378C337.176 115.989 156.171 274.566 136.505 478.732C134.582 498.697 133.926 536.428 138.169 555.574C138.165 557.52 138.081 559.499 138.169 561.442Z"/>
	<path fill="#2F3942" d="M138.169 555.574C133.926 536.428 134.582 498.697 136.505 478.732C156.171 274.566 337.176 115.989 543.196 136.378C706.154 152.505 844.731 268.702 881.253 428.761C890.837 470.761 877.1 451.365 875.778 464.762C879.201 461.361 882.43 457.744 885.785 454.271C886.506 457.235 887.101 460.242 887.75 463.224C887.952 465.548 887.897 467.72 887.75 470.04L890.063 480.714L890.063 487.91L890.063 490.291C890.682 494.995 890.408 499.675 890.063 504.391L890.063 518.802C886.555 521.722 876.532 532.518 873.732 533.618C872.382 536.838 872.515 540.623 872.366 544.064C870.466 547.863 868.885 551.546 867.539 555.574C874.219 555.515 881.109 556.139 887.75 555.574L887.75 558.856C887.102 561.713 886.165 564.721 885.785 567.612L885.785 571.9C885.032 574.384 884.151 576.897 883.527 579.413C883.422 581.765 883.317 584.063 883.527 586.416C882.246 589.749 880.859 593.079 879.891 596.518C879.401 598.835 878.972 601.186 878.354 603.471C877.411 606.923 876.498 610.356 875.778 613.862C874.688 617.21 873.605 620.553 872.366 623.85C870.754 627.689 868.615 631.762 867.539 635.767C866.253 638.854 866.184 641.953 865.132 645.008C863.011 649.19 860.758 653.28 858.47 657.371C857.886 659.618 857.471 662.287 856.294 664.293C854.426 668.588 852.5 672.987 849.92 676.912C848.265 680.51 846.8 684.706 844.814 688.083C842.392 692.154 839.944 696.206 837.738 700.401C835.956 703.837 834.052 707.808 831.836 710.973C827.449 717.748 822.997 724.404 817.293 730.172C813.915 735.485 809.704 743.279 804.849 747.248C778.19 781.793 730.962 820.204 693.643 840.405C688.064 844.546 669.226 853.989 662.596 855.213C654.74 858.608 646.386 862.069 639.03 866.441C632.936 867.201 626.53 870.348 621.34 870.783C614.457 872.885 607.373 874.569 600.556 876.824C594.78 878.468 588.869 879.544 583.081 881.139C579.199 881.639 575.212 881.991 571.392 882.836C565.929 884.35 560.133 884.738 554.582 886.091C549.723 886.07 544.852 885.976 539.994 886.091C536.714 886.972 532.765 887.669 529.376 887.971C525.604 887.933 521.708 887.69 517.95 887.971C510.155 887.764 501.875 888.899 494.167 887.971C488.687 887.385 483.12 886.971 477.681 886.091C475.582 886.312 473.452 886.157 471.346 886.091C468.245 885.241 465.209 884.645 462.031 884.167C458.689 883.772 455.362 883.333 452.034 882.836C448.507 882.391 444.976 881.705 441.464 881.139C438.711 880.121 435.791 879.645 432.922 879.057C429.616 878.113 426.397 877.367 423.002 876.824L415.303 874.478C412.569 873.839 409.94 873.122 407.282 872.215C404.654 871.234 401.149 871.137 398.338 870.783C395.498 868.806 392.711 867.525 389.45 866.441C386.691 865.528 383.997 864.435 381.294 863.372C378.816 862.642 376.469 861.614 374.091 860.617L365.521 857.212L358.659 855.213L351.651 851.062C348.966 849.473 346.13 848.073 343.377 846.599L336.112 843.152C334.018 841.911 331.718 841.205 329.43 840.405C326.863 838.515 324.353 836.605 321.54 835.091C319.297 833.931 317.097 832.821 315.031 831.357C312.647 830.065 310.339 828.525 308.024 827.107C306.308 825.94 304.752 824.693 303.192 823.326C300.69 821.806 298.526 820.19 296.319 818.268C294.811 817.142 293.3 816.05 291.932 814.753C288.757 813.177 285.725 811.439 283.032 809.122C281.549 808.058 280.256 806.891 278.928 805.641C276.94 804.132 275.064 802.501 273.171 800.875C271.608 799.66 270.21 797.996 268.807 796.586C266.617 795.269 265.161 793.699 263.514 791.796C261.901 791.228 260.304 790.303 258.757 789.559C256.366 787.392 254.14 785.004 251.79 782.783C251.105 781.852 250.619 780.837 250.101 779.809C248.006 778.342 245.932 776.858 243.88 775.331L240.205 772.674C238.123 770.071 235.814 767.705 233.503 765.308C232.662 764.06 231.967 762.756 231.258 761.432C229.774 759.879 228.571 757.921 227.318 756.175C226.139 755.46 225.159 754.498 224.125 753.59C222.36 751.729 221.024 749.381 219.607 747.248L216.997 743.289C214.502 741.233 212.002 739.144 210.159 736.465C210.111 735.829 210.156 735.055 210.159 734.413C207.703 732.223 204.933 730.173 203.219 727.32C202.247 726.426 201.676 725.437 200.969 724.335C199.619 721.8 198.144 719.38 196.623 716.946C196.068 716.25 195.607 715.488 195.123 714.741C193.179 712.078 191.393 709.426 189.743 706.571C189.122 705.803 188.647 704.785 188.142 703.929C186.465 701.66 185.483 699.085 184.404 696.501C183.394 695.244 182.586 693.672 181.733 692.296C180.28 689.897 179.039 687.379 177.757 684.886C177.053 683.963 176.587 682.731 176.069 681.686C174.439 679.242 173.057 676.69 171.659 674.111C171.68 673.073 171.667 672.036 171.659 670.998C170.146 668.179 167.581 666.167 165.93 663.366L165.93 660.077L161.781 650.637C161.731 649.464 161.753 648.308 161.781 647.135C160.467 644.287 158.597 641.721 157.263 638.839L155.355 633.427C154.607 630.695 153.526 627.973 152.615 625.285L152.615 621.062C151.696 618.582 150.048 616.367 149.058 613.862L149.058 610.139C147.671 607.02 146.424 603.903 145.278 600.688L145.278 596.518C144.083 593.168 143.007 589.879 142.191 586.416L142.191 583.714C141.426 580.415 140.82 577.096 140.22 573.764L140.22 569.178C139.507 566.605 138.818 564.032 138.169 561.442C138.081 559.499 138.165 557.52 138.169 555.574ZM552.719 743.289C555.639 739.844 557.074 735.163 560.097 731.99C563.106 728.833 569.455 728.665 571.15 724.569C569.98 720.637 562.814 719.635 559.915 716.933C556.928 714.149 555.974 708.709 552.719 706.571C549.338 710.035 547.175 714.591 543.315 717.523C525.524 731.038 535.734 722.3 545.338 732.415C548.333 735.569 549.385 740.586 552.719 743.289ZM625.177 721.68C627.488 720.473 628.46 717.676 627.397 715.295C626.334 712.914 623.602 711.772 621.161 712.687C619.443 713.331 618.223 714.875 617.996 716.696C617.769 718.517 618.572 720.314 620.079 721.36C621.587 722.407 623.551 722.53 625.177 721.68ZM408.247 734.047C409.964 733.631 411.323 732.318 411.798 730.616C412.272 728.913 411.789 727.087 410.535 725.842C409.28 724.597 407.451 724.127 405.752 724.615C403.2 725.347 401.701 727.986 402.38 730.553C403.059 733.119 405.666 734.672 408.247 734.047ZM468.231 743.246C470.628 742.981 472.373 740.848 472.158 738.446C471.942 736.045 469.846 734.256 467.44 734.422C465.839 734.532 464.423 735.499 463.738 736.951C463.053 738.402 463.206 740.11 464.138 741.416C465.071 742.722 466.636 743.422 468.231 743.246ZM512.244 769.644C513.764 769.047 514.819 767.646 514.972 766.02C515.126 764.394 514.351 762.82 512.97 761.95C511.588 761.079 509.835 761.059 508.434 761.899C506.502 763.057 505.781 765.503 506.775 767.525C507.77 769.546 510.148 770.468 512.244 769.644Z"/>
	<defs>
		<linearGradient id="gradient_0" gradientUnits="userSpaceOnUse" x1="516.12103" y1="531.91437" x2="453.34146" y2="139.92578">
			<stop offset="0" stop-color="#D95463"/>
			<stop offset="1" stop-color="#EAA776"/>
		</linearGradient>
	</defs>
	<path fill="url(#gradient_0)" d="M138.169 555.574C133.926 536.428 134.582 498.697 136.505 478.732C156.171 274.566 337.176 115.989 543.196 136.378C706.154 152.505 844.731 268.702 881.253 428.761C890.837 470.761 877.1 451.365 875.778 464.762C871.84 471.069 864.249 476.265 858.47 480.714C851.643 460.246 805.829 432.911 788.078 424.04C783.068 421.536 777.365 419.369 772.953 415.898C766.645 408.024 764.38 396.888 760.239 387.798C722.288 304.488 634.134 243.761 544.504 232.035C396.277 212.643 249.814 321.061 230.372 470.52C229.794 474.963 229.51 479.385 229.397 483.862C210.89 496.282 194.011 511.77 181.733 530.487C175.569 525.191 146.721 551.194 138.169 555.574Z"/>
	<path fill="#E35457" d="M879.891 596.518C879.401 598.835 878.972 601.186 878.354 603.471C877.411 606.923 876.498 610.356 875.778 613.862C874.688 617.21 873.605 620.553 872.366 623.85C870.754 627.689 868.615 631.762 867.539 635.767C866.253 638.854 866.184 641.953 865.132 645.008C863.011 649.19 860.758 653.28 858.47 657.371C857.886 659.618 857.471 662.287 856.294 664.293C854.426 668.588 852.5 672.987 849.92 676.912C848.265 680.51 846.8 684.706 844.814 688.083C842.392 692.154 839.944 696.206 837.738 700.401C835.956 703.837 834.052 707.808 831.836 710.973C827.449 717.748 822.997 724.404 817.293 730.172C813.915 735.485 809.704 743.279 804.849 747.248C778.19 781.793 730.962 820.204 693.643 840.405C688.064 844.546 669.226 853.989 662.596 855.213C654.74 858.608 646.386 862.069 639.03 866.441C632.936 867.201 626.53 870.348 621.34 870.783C614.457 872.885 607.373 874.569 600.556 876.824C594.78 878.468 588.869 879.544 583.081 881.139C579.199 881.639 575.212 881.991 571.392 882.836C565.929 884.35 560.133 884.738 554.582 886.091C549.723 886.07 544.852 885.976 539.994 886.091C536.714 886.972 532.765 887.669 529.376 887.971C525.604 887.933 521.708 887.69 517.95 887.971C510.155 887.764 501.875 888.899 494.167 887.971C488.687 887.385 483.12 886.971 477.681 886.091C475.582 886.312 473.452 886.157 471.346 886.091C468.245 885.241 465.209 884.645 462.031 884.167C458.689 883.772 455.362 883.333 452.034 882.836C448.507 882.391 444.976 881.705 441.464 881.139C438.711 880.121 435.791 879.645 432.922 879.057C429.616 878.113 426.397 877.367 423.002 876.824L415.303 874.478C412.569 873.839 409.94 873.122 407.282 872.215C404.654 871.234 401.149 871.137 398.338 870.783C395.498 868.806 392.711 867.525 389.45 866.441C386.691 865.528 383.997 864.435 381.294 863.372C378.816 862.642 376.469 861.614 374.091 860.617L365.521 857.212L358.659 855.213L351.651 851.062C348.966 849.473 346.13 848.073 343.377 846.599L336.112 843.152C334.018 841.911 331.718 841.205 329.43 840.405C326.863 838.515 324.353 836.605 321.54 835.091C319.297 833.931 317.097 832.821 315.031 831.357C312.647 830.065 310.339 828.525 308.024 827.107C306.308 825.94 304.752 824.693 303.192 823.326C300.69 821.806 298.526 820.19 296.319 818.268C294.811 817.142 293.3 816.05 291.932 814.753C297.708 805.429 357.147 765.455 369.118 758.883C370.785 759.679 372.549 760.411 374.091 761.432C376.453 762.758 378.811 764.226 381.294 765.308C383.038 766.293 384.866 767.219 386.557 768.289L395.685 772.674C397.817 773.518 400.119 774.257 402.14 775.331C405.313 776.787 408.533 778.188 411.625 779.809C413.909 780.209 416.207 781.298 417.994 782.783C420.537 783.613 423.155 784.352 425.607 785.423C428.629 785.98 431.661 786.471 434.611 787.345C436.889 788.107 439.168 788.852 441.464 789.559C444.394 790.318 447.319 791.096 450.264 791.796C453.359 792.47 456.461 793.121 459.542 793.861C463.742 794.159 467.424 795.073 471.346 796.586L476.564 796.586C481.399 797.489 486.218 797.701 491.038 798.415C492.931 798.395 494.838 798.318 496.728 798.415C501.653 799.56 505.629 799.129 510.581 798.415C513.472 798.864 516.646 798.814 519.535 798.415L531.172 798.415L545.511 796.586C548.84 794.887 554.972 794.424 558.777 793.861C564.737 792.653 570.641 791.036 576.541 789.559C581.851 788.206 587.161 786.861 592.449 785.423C598.87 782.558 605.472 780.153 612.05 777.681C619.604 774.222 626.869 769.914 635.067 768.289C640.416 762.955 647.148 759.076 653.383 754.858C680.829 736.29 692.129 721.123 714.201 700.847L714.695 700.401C717.991 694.719 724.995 686.283 729.677 681.686C730.891 682.113 854.303 611.745 865.036 604.598C869.359 601.719 874.46 596.706 879.891 596.518Z"/>
	<path fill="#E35457" d="M539.994 886.091C542.532 882.409 558.613 870.816 562.908 867.223L691.651 759.973C722.861 733.539 754.613 708.011 789.859 687.069C799.322 681.447 861.692 643.684 864.233 643.588L865.132 645.008C863.011 649.19 860.758 653.28 858.47 657.371C857.886 659.618 857.471 662.287 856.294 664.293C854.426 668.588 852.5 672.987 849.92 676.912C848.265 680.51 846.8 684.706 844.814 688.083C842.392 692.154 839.944 696.206 837.738 700.401C835.956 703.837 834.052 707.808 831.836 710.973C827.449 717.748 822.997 724.404 817.293 730.172C813.915 735.485 809.704 743.279 804.849 747.248C778.19 781.793 730.962 820.204 693.643 840.405C688.064 844.546 669.226 853.989 662.596 855.213C654.74 858.608 646.386 862.069 639.03 866.441C632.936 867.201 626.53 870.348 621.34 870.783C614.457 872.885 607.373 874.569 600.556 876.824C594.78 878.468 588.869 879.544 583.081 881.139C579.199 881.639 575.212 881.991 571.392 882.836C565.929 884.35 560.133 884.738 554.582 886.091C549.723 886.07 544.852 885.976 539.994 886.091Z"/>
	<path fill="#E35457" d="M600.556 876.824C599.963 875.952 599.867 875.978 599.779 874.85C674.936 815.541 747.466 746.334 828.135 696.105C830.969 694.341 840.788 687.306 843.671 687.052L844.814 688.083C842.392 692.154 839.944 696.206 837.738 700.401C835.956 703.837 834.052 707.808 831.836 710.973C827.449 717.748 822.997 724.404 817.293 730.172C813.915 735.485 809.704 743.279 804.849 747.248C778.19 781.793 730.962 820.204 693.643 840.405C688.064 844.546 669.226 853.989 662.596 855.213C654.74 858.608 646.386 862.069 639.03 866.441C632.936 867.201 626.53 870.348 621.34 870.783C614.457 872.885 607.373 874.569 600.556 876.824Z"/>
	<path fill="#944155" d="M662.596 855.213C663.711 849.074 684.362 835.933 689.943 831.47C706.032 818.605 802.242 733.662 817.293 730.172C813.915 735.485 809.704 743.279 804.849 747.248C778.19 781.793 730.962 820.204 693.643 840.405C688.064 844.546 669.226 853.989 662.596 855.213Z"/>
	<path fill="#E35457" d="M693.643 840.405C692.624 836.554 698.634 834.209 701.193 831.955C712.709 821.811 799.207 746.535 804.006 746.371L804.849 747.248C778.19 781.793 730.962 820.204 693.643 840.405Z"/>
	<path fill="#E35457" d="M639.03 866.441C637.235 860.907 651.943 852.199 655.824 849.004L681.147 827.959C694.676 816.689 824.327 707.64 831.836 710.973C827.449 717.748 822.997 724.404 817.293 730.172C802.242 733.662 706.032 818.605 689.943 831.47C684.362 835.933 663.711 849.074 662.596 855.213C654.74 858.608 646.386 862.069 639.03 866.441Z"/>
	<path fill="#944155" d="M621.34 870.783C627.459 860.973 659.416 837.845 670.012 829.066C717.295 789.887 762.655 749.282 813.859 715.019C821.478 709.921 828.968 703.364 837.738 700.401C835.956 703.837 834.052 707.808 831.836 710.973C824.327 707.64 694.676 816.689 681.147 827.959L655.824 849.004C651.943 852.199 637.235 860.907 639.03 866.441C632.936 867.201 626.53 870.348 621.34 870.783Z"/>
	<path fill="#E35457" d="M571.392 882.836L570.059 881.905L570.04 881.218C577.509 873.497 586.693 866.846 594.987 859.999L642.646 820.895C679.85 790.25 715.405 757.625 754.147 728.89C785.158 705.888 821.64 684.379 855.022 663.983L856.294 664.293C854.426 668.588 852.5 672.987 849.92 676.912C848.265 680.51 846.8 684.706 844.814 688.083L843.671 687.052C840.788 687.306 830.969 694.341 828.135 696.105C747.466 746.334 674.936 815.541 599.779 874.85C599.867 875.978 599.963 875.952 600.556 876.824C594.78 878.468 588.869 879.544 583.081 881.139C579.199 881.639 575.212 881.991 571.392 882.836Z"/>
	<path fill="#944155" d="M583.081 881.139C588.892 874.187 597.697 868.661 604.753 862.95L642.51 832.018C703.295 782.43 759.051 729.792 827.476 690.232C834.771 686.014 842.004 679.688 849.92 676.912C848.265 680.51 846.8 684.706 844.814 688.083L843.671 687.052C840.788 687.306 830.969 694.341 828.135 696.105C747.466 746.334 674.936 815.541 599.779 874.85C599.867 875.978 599.963 875.952 600.556 876.824C594.78 878.468 588.869 879.544 583.081 881.139Z"/>
	<path fill="#944155" d="M554.582 886.091C560.264 876.931 572.722 869.991 580.96 863.153L639.002 815.202C675.685 785.211 710.879 752.676 748.94 724.482C757.113 718.428 850.586 657.942 858.47 657.371C857.886 659.618 857.471 662.287 856.294 664.293L855.022 663.983C821.64 684.379 785.158 705.888 754.147 728.89C715.405 757.625 679.85 790.25 642.646 820.895L594.987 859.999C586.693 866.846 577.509 873.497 570.04 881.218L570.059 881.905L571.392 882.836C565.929 884.35 560.133 884.738 554.582 886.091Z"/>
	<path fill="#E35457" d="M369.118 758.883C370.785 759.679 372.549 760.411 374.091 761.432C376.453 762.758 378.811 764.226 381.294 765.308C383.038 766.293 384.866 767.219 386.557 768.289L395.685 772.674C397.817 773.518 400.119 774.257 402.14 775.331C405.313 776.787 408.533 778.188 411.625 779.809C413.909 780.209 416.207 781.298 417.994 782.783C420.537 783.613 423.155 784.352 425.607 785.423C428.629 785.98 431.661 786.471 434.611 787.345C436.889 788.107 439.168 788.852 441.464 789.559C439.722 792.958 368.225 848.672 358.659 855.213L351.651 851.062C348.966 849.473 346.13 848.073 343.377 846.599L336.112 843.152C334.018 841.911 331.718 841.205 329.43 840.405C326.863 838.515 324.353 836.605 321.54 835.091C319.297 833.931 317.097 832.821 315.031 831.357C312.647 830.065 310.339 828.525 308.024 827.107C306.308 825.94 304.752 824.693 303.192 823.326C300.69 821.806 298.526 820.19 296.319 818.268C294.811 817.142 293.3 816.05 291.932 814.753C297.708 805.429 357.147 765.455 369.118 758.883Z"/>
	<path fill="#E35457" d="M369.118 758.883C370.785 759.679 372.549 760.411 374.091 761.432C376.453 762.758 378.811 764.226 381.294 765.308C383.038 766.293 384.866 767.219 386.557 768.289L395.685 772.674C371.21 790.692 339.982 815.748 315.031 831.357C312.647 830.065 310.339 828.525 308.024 827.107C306.308 825.94 304.752 824.693 303.192 823.326C300.69 821.806 298.526 820.19 296.319 818.268C294.811 817.142 293.3 816.05 291.932 814.753C297.708 805.429 357.147 765.455 369.118 758.883Z"/>
	<path fill="#E35457" d="M369.118 758.883C370.785 759.679 372.549 760.411 374.091 761.432C376.453 762.758 378.811 764.226 381.294 765.308C377.109 769.575 371.01 772.406 366.164 775.923L321.955 808.645C315.675 813.359 308.499 817.528 303.192 823.326C300.69 821.806 298.526 820.19 296.319 818.268C294.811 817.142 293.3 816.05 291.932 814.753C297.708 805.429 357.147 765.455 369.118 758.883Z"/>
	<path fill="#944155" d="M369.118 758.883C370.785 759.679 372.549 760.411 374.091 761.432C366.457 766.11 359.312 771.681 352.053 776.92L318.411 801.355C311.189 806.69 302.293 811.602 296.319 818.268C294.811 817.142 293.3 816.05 291.932 814.753C297.708 805.429 357.147 765.455 369.118 758.883Z"/>
	<path fill="#944155" d="M381.294 765.308C383.038 766.293 384.866 767.219 386.557 768.289C380.474 776.934 366.112 784.437 357.474 790.715L308.024 827.107C306.308 825.94 304.752 824.693 303.192 823.326C308.499 817.528 315.675 813.359 321.955 808.645L366.164 775.923C371.01 772.406 377.109 769.575 381.294 765.308Z"/>
	<path fill="#E35457" d="M395.685 772.674C397.817 773.518 400.119 774.257 402.14 775.331C405.313 776.787 408.533 778.188 411.625 779.809C413.909 780.209 416.207 781.298 417.994 782.783C412.694 783.403 345.371 836.466 336.112 843.152C334.018 841.911 331.718 841.205 329.43 840.405C326.863 838.515 324.353 836.605 321.54 835.091C319.297 833.931 317.097 832.821 315.031 831.357C339.982 815.748 371.21 790.692 395.685 772.674Z"/>
	<path fill="#944155" d="M411.625 779.809C413.909 780.209 416.207 781.298 417.994 782.783C412.694 783.403 345.371 836.466 336.112 843.152C334.018 841.911 331.718 841.205 329.43 840.405C336.722 833.017 405.112 782.417 411.625 779.809Z"/>
	<path fill="#944155" d="M395.685 772.674C397.817 773.518 400.119 774.257 402.14 775.331C395.423 779.947 389.1 785.161 382.572 790.043L343.844 819.067C336.864 824.37 327.935 829.412 321.54 835.091C319.297 833.931 317.097 832.821 315.031 831.357C339.982 815.748 371.21 790.692 395.685 772.674Z"/>
	<path fill="#E35457" d="M336.112 843.152C345.371 836.466 412.694 783.403 417.994 782.783C420.537 783.613 423.155 784.352 425.607 785.423C404.528 795.296 363.52 840.363 343.377 846.599L336.112 843.152Z"/>
	<path fill="#944155" d="M425.607 785.423C428.629 785.98 431.661 786.471 434.611 787.345C430.224 788.373 360.945 842.312 351.651 851.062C348.966 849.473 346.13 848.073 343.377 846.599C363.52 840.363 404.528 795.296 425.607 785.423Z"/>
	<path fill="#E35457" d="M441.464 789.559C444.394 790.318 447.319 791.096 450.264 791.796C453.359 792.47 456.461 793.121 459.542 793.861C463.742 794.159 467.424 795.073 471.346 796.586L476.564 796.586C481.399 797.489 486.218 797.701 491.038 798.415C492.931 798.395 494.838 798.318 496.728 798.415C501.653 799.56 505.629 799.129 510.581 798.415C513.472 798.864 516.646 798.814 519.535 798.415C514.595 806.329 429.884 875.375 423.002 876.824L415.303 874.478C412.569 873.839 409.94 873.122 407.282 872.215C404.654 871.234 401.149 871.137 398.338 870.783C395.498 868.806 392.711 867.525 389.45 866.441C386.691 865.528 383.997 864.435 381.294 863.372C378.816 862.642 376.469 861.614 374.091 860.617L365.521 857.212L358.659 855.213C368.225 848.672 439.722 792.958 441.464 789.559Z"/>
	<path fill="#E35457" d="M441.464 789.559C444.394 790.318 447.319 791.096 450.264 791.796C453.359 792.47 456.461 793.121 459.542 793.861C463.742 794.159 467.424 795.073 471.346 796.586L476.564 796.586L477.133 797.295C474.881 802.357 449.533 820.173 443.749 824.84C427.669 837.813 407.485 857.049 389.45 866.441C386.691 865.528 383.997 864.435 381.294 863.372C378.816 862.642 376.469 861.614 374.091 860.617L365.521 857.212L358.659 855.213C368.225 848.672 439.722 792.958 441.464 789.559Z"/>
	<path fill="#E35457" d="M441.464 789.559C444.394 790.318 447.319 791.096 450.264 791.796C453.359 792.47 456.461 793.121 459.542 793.861C458.027 798.119 444.278 806.308 440.091 809.607C428.115 819.044 386.291 855.769 374.091 860.617L365.521 857.212L358.659 855.213C368.225 848.672 439.722 792.958 441.464 789.559Z"/>
	<path fill="#944155" d="M441.464 789.559C444.394 790.318 447.319 791.096 450.264 791.796C426.459 809.523 389.749 843.877 365.521 857.212L358.659 855.213C368.225 848.672 439.722 792.958 441.464 789.559Z"/>
	<path fill="#944155" d="M459.542 793.861C463.742 794.159 467.424 795.073 471.346 796.586C462.515 797.4 454.738 806.213 448.121 811.439L411.013 840.893C401.773 848.367 391.817 858.008 381.294 863.372C378.816 862.642 376.469 861.614 374.091 860.617C386.291 855.769 428.115 819.044 440.091 809.607C444.278 806.308 458.027 798.119 459.542 793.861Z"/>
	<path fill="#E35457" d="M476.564 796.586C481.399 797.489 486.218 797.701 491.038 798.415C492.931 798.395 494.838 798.318 496.728 798.415C493.163 806.185 477.249 816.46 470.491 821.933L430.637 853.795C424.135 858.899 413.998 868.309 407.282 872.215C404.654 871.234 401.149 871.137 398.338 870.783C395.498 868.806 392.711 867.525 389.45 866.441C407.485 857.049 427.669 837.813 443.749 824.84C449.533 820.173 474.881 802.357 477.133 797.295L476.564 796.586Z"/>
	<path fill="#944155" d="M476.564 796.586C481.399 797.489 486.218 797.701 491.038 798.415C489.056 798.463 487.714 798.349 486.096 799.633L428.337 845.067C419.4 852.162 404.85 861.939 398.338 870.783C395.498 868.806 392.711 867.525 389.45 866.441C407.485 857.049 427.669 837.813 443.749 824.84C449.533 820.173 474.881 802.357 477.133 797.295L476.564 796.586Z"/>
	<path fill="#944155" d="M496.728 798.415C501.653 799.56 505.629 799.129 510.581 798.415C506.024 799.74 481.208 821.163 475.523 825.67C469.554 830.402 417.216 870.913 415.303 874.478C412.569 873.839 409.94 873.122 407.282 872.215C413.998 868.309 424.135 858.899 430.637 853.795L470.491 821.933C477.249 816.46 493.163 806.185 496.728 798.415Z"/>
	<path fill="#E35457" d="M517.95 887.971L516.492 887.371L516.391 886.703C553.94 856.5 592.49 824.677 628.865 793.305L684.567 745.927C739.522 699.592 778.987 677.634 841.53 641.893C845.246 639.77 871.234 622.655 871.599 622.616L872.366 623.85C870.754 627.689 868.615 631.762 867.539 635.767C866.253 638.854 866.184 641.953 865.132 645.008L864.233 643.588C861.692 643.684 799.322 681.447 789.859 687.069C754.613 708.011 722.861 733.539 691.651 759.973L562.908 867.223C558.613 870.816 542.532 882.409 539.994 886.091C536.714 886.972 532.765 887.669 529.376 887.971C525.604 887.933 521.708 887.69 517.95 887.971Z"/>
	<path fill="#944155" d="M867.539 635.767C866.253 638.854 866.184 641.953 865.132 645.008L864.233 643.588C861.692 643.684 799.322 681.447 789.859 687.069C754.613 708.011 722.861 733.539 691.651 759.973L562.908 867.223C558.613 870.816 542.532 882.409 539.994 886.091C536.714 886.972 532.765 887.669 529.376 887.971C538.296 875.24 585.091 840.914 599.156 829.214L680.947 760.719C709.495 736.612 737.438 712.573 769.212 692.695C774.174 689.59 865.977 635.832 867.539 635.767Z"/>
	<path fill="#E35457" d="M558.777 793.861C564.737 792.653 570.641 791.036 576.541 789.559L576.803 790.735C567.217 799.255 556.925 807.257 546.981 815.37L472.136 875.81C468.783 878.558 465.519 881.61 462.031 884.167C458.689 883.772 455.362 883.333 452.034 882.836C448.507 882.391 444.976 881.705 441.464 881.139C438.711 880.121 435.791 879.645 432.922 879.057C429.616 878.113 426.397 877.367 423.002 876.824C429.884 875.375 514.595 806.329 519.535 798.415L531.172 798.415L545.511 796.586C548.84 794.887 554.972 794.424 558.777 793.861Z"/>
	<path fill="#E35457" d="M531.172 798.415L545.511 796.586L545.73 797.563C536.246 803.859 527.91 812.066 519.163 819.34C498.456 836.559 463.519 866.991 441.464 881.139C438.711 880.121 435.791 879.645 432.922 879.057C429.616 878.113 426.397 877.367 423.002 876.824C429.884 875.375 514.595 806.329 519.535 798.415L531.172 798.415Z"/>
	<path fill="#944155" d="M519.535 798.415L531.172 798.415C505.387 820.7 478.219 841.413 452.018 863.207C446.23 868.021 437.521 873.254 432.922 879.057C429.616 878.113 426.397 877.367 423.002 876.824C429.884 875.375 514.595 806.329 519.535 798.415Z"/>
	<path fill="#944155" d="M545.511 796.586C548.84 794.887 554.972 794.424 558.777 793.861C550.648 802.559 540.603 809.751 531.413 817.325L471.731 865.589C467.039 869.378 453.644 877.529 452.034 882.836C448.507 882.391 444.976 881.705 441.464 881.139C463.519 866.991 498.456 836.559 519.163 819.34C527.91 812.066 536.246 803.859 545.73 797.563L545.511 796.586Z"/>
	<path fill="#944155" d="M504.846 887.971C509.168 882.234 516.155 877.918 521.702 873.354L656.564 761.424C702.793 722.121 738.721 692.256 791.751 662.684C813.125 650.764 835.428 640.348 855.797 626.698C862.26 622.366 868.704 617.161 875.778 613.862C874.688 617.21 873.605 620.553 872.366 623.85L871.599 622.616C871.234 622.655 845.246 639.77 841.53 641.893C778.987 677.634 739.522 699.592 684.567 745.927L628.865 793.305C592.49 824.677 553.94 856.5 516.391 886.703L516.492 887.371L517.95 887.971C510.155 887.764 501.875 888.899 494.167 887.971C497.672 887.533 501.323 887.846 504.846 887.971Z"/>
	<path fill="#E35457" d="M612.05 777.681L612.293 778.957C593.528 800.187 547.352 833.594 524.369 851.856C514.133 859.989 488.487 885.749 477.681 886.091C475.582 886.312 473.452 886.157 471.346 886.091C468.245 885.241 465.209 884.645 462.031 884.167C465.519 881.61 468.783 878.558 472.136 875.81L546.981 815.37C556.925 807.257 567.217 799.255 576.803 790.735L576.541 789.559C581.851 788.206 587.161 786.861 592.449 785.423C598.87 782.558 605.472 780.153 612.05 777.681Z"/>
	<path fill="#944155" d="M576.541 789.559C581.851 788.206 587.161 786.861 592.449 785.423C586.309 792.928 576.884 798.661 569.371 804.861L508.913 854.444C497.13 863.938 480.943 874.712 471.346 886.091C468.245 885.241 465.209 884.645 462.031 884.167C465.519 881.61 468.783 878.558 472.136 875.81L546.981 815.37C556.925 807.257 567.217 799.255 576.803 790.735L576.541 789.559Z"/>
	<path fill="#944155" d="M612.05 777.681C619.604 774.222 626.869 769.914 635.067 768.289C623.799 780.47 605.644 793.881 592.434 804.615L511.603 871.008C505.242 876.16 498.163 880.626 494.167 887.971C488.687 887.385 483.12 886.971 477.681 886.091C488.487 885.749 514.133 859.989 524.369 851.856C547.352 833.594 593.528 800.187 612.293 778.957L612.05 777.681Z"/>
	<path fill="#944155" d="M879.891 596.518C879.401 598.835 878.972 601.186 878.354 603.471L877.466 602.09C874.39 604.06 871.562 606.484 868.564 608.585C828.1 636.945 781.889 656.062 740.691 683.355C732.784 688.593 723.531 697.439 714.695 700.401C717.991 694.719 724.995 686.283 729.677 681.686C730.891 682.113 854.303 611.745 865.036 604.598C869.359 601.719 874.46 596.706 879.891 596.518Z"/>
	<path fill="#E35457" d="M303.192 703.929C305.416 706.256 307.713 708.548 309.83 710.973C310.345 711.517 310.909 712.051 311.367 712.644C313.637 714.857 315.938 717.045 318.116 719.35C319.26 720.318 320.486 721.262 321.54 722.323C323.093 724 324.602 725.777 326.287 727.32L329.43 730.172C331.588 732.271 333.744 734.614 336.112 736.465C337.168 737.034 338.108 737.524 339.041 738.292L346.611 743.289C347.588 744.548 348.758 745.84 349.49 747.248C351.793 748.368 354.488 749.383 356.551 750.889L360.857 753.59L369.118 758.883C357.147 765.455 297.708 805.429 291.932 814.753C288.757 813.177 285.725 811.439 283.032 809.122C281.549 808.058 280.256 806.891 278.928 805.641C276.94 804.132 275.064 802.501 273.171 800.875C271.608 799.66 270.21 797.996 268.807 796.586C266.617 795.269 265.161 793.699 263.514 791.796C261.901 791.228 260.304 790.303 258.757 789.559C256.366 787.392 254.14 785.004 251.79 782.783C251.105 781.852 250.619 780.837 250.101 779.809C248.006 778.342 245.932 776.858 243.88 775.331L240.205 772.674C238.123 770.071 235.814 767.705 233.503 765.308C232.662 764.06 231.967 762.756 231.258 761.432C229.774 759.879 228.571 757.921 227.318 756.175C247.091 740.226 288.751 719.183 303.192 703.929Z"/>
	<path fill="#E35457" d="M303.192 703.929C305.416 706.256 307.713 708.548 309.83 710.973C310.345 711.517 310.909 712.051 311.367 712.644C313.637 714.857 315.938 717.045 318.116 719.35C319.26 720.318 320.486 721.262 321.54 722.323C323.093 724 324.602 725.777 326.287 727.32C318.514 733.65 309.617 738.884 301.263 744.42L267.788 767.088C262.312 770.8 254.413 774.863 250.101 779.809C248.006 778.342 245.932 776.858 243.88 775.331L240.205 772.674C238.123 770.071 235.814 767.705 233.503 765.308C232.662 764.06 231.967 762.756 231.258 761.432C229.774 759.879 228.571 757.921 227.318 756.175C247.091 740.226 288.751 719.183 303.192 703.929Z"/>
	<path fill="#E35457" d="M321.54 722.323C323.093 724 324.602 725.777 326.287 727.32C318.514 733.65 309.617 738.884 301.263 744.42L267.788 767.088C262.312 770.8 254.413 774.863 250.101 779.809C248.006 778.342 245.932 776.858 243.88 775.331C249.935 767.538 311.012 728.274 321.54 722.323Z"/>
	<path fill="#E35457" d="M303.192 703.929C305.416 706.256 307.713 708.548 309.83 710.973C301.315 715.082 293.451 720.786 285.577 726L252.269 748.178C245.472 752.756 238.658 757.89 231.258 761.432C229.774 759.879 228.571 757.921 227.318 756.175C247.091 740.226 288.751 719.183 303.192 703.929Z"/>
	<path fill="#944155" d="M318.116 719.35C319.26 720.318 320.486 721.262 321.54 722.323C311.012 728.274 249.935 767.538 243.88 775.331L240.205 772.674C248.109 763.763 304.197 726.544 318.116 719.35Z"/>
	<path fill="#944155" d="M309.83 710.973C310.345 711.517 310.909 712.051 311.367 712.644C307.004 718.279 238.061 764.061 233.503 765.308C232.662 764.06 231.967 762.756 231.258 761.432C238.658 757.89 245.472 752.756 252.269 748.178L285.577 726C293.451 720.786 301.315 715.082 309.83 710.973Z"/>
	<path fill="#E35457" d="M326.287 727.32L329.43 730.172C331.588 732.271 333.744 734.614 336.112 736.465C337.168 737.034 338.108 737.524 339.041 738.292C332.618 743.715 325.525 748.377 318.632 753.179L284.8 776.387C277.664 781.251 269.778 785.863 263.514 791.796C261.901 791.228 260.304 790.303 258.757 789.559C256.366 787.392 254.14 785.004 251.79 782.783C251.105 781.852 250.619 780.837 250.101 779.809C254.413 774.863 262.312 770.8 267.788 767.088L301.263 744.42C309.617 738.884 318.514 733.65 326.287 727.32Z"/>
	<path fill="#944155" d="M336.112 736.465C337.168 737.034 338.108 737.524 339.041 738.292C332.618 743.715 325.525 748.377 318.632 753.179L284.8 776.387C277.664 781.251 269.778 785.863 263.514 791.796C261.901 791.228 260.304 790.303 258.757 789.559C269.797 778.115 294.104 764.36 307.984 754.873C316.344 749.158 329.039 741.829 336.112 736.465Z"/>
	<path fill="#944155" d="M326.287 727.32L329.43 730.172C314.458 741.597 268.016 775.594 251.79 782.783C251.105 781.852 250.619 780.837 250.101 779.809C254.413 774.863 262.312 770.8 267.788 767.088L301.263 744.42C309.617 738.884 318.514 733.65 326.287 727.32Z"/>
	<path fill="#E35457" d="M339.041 738.292L346.611 743.289C347.588 744.548 348.758 745.84 349.49 747.248C340.608 751.4 330.996 759.584 322.742 765.317L291.64 787.112C285.426 791.528 278.886 795.826 273.171 800.875C271.608 799.66 270.21 797.996 268.807 796.586C266.617 795.269 265.161 793.699 263.514 791.796C269.778 785.863 277.664 781.251 284.8 776.387L318.632 753.179C325.525 748.377 332.618 743.715 339.041 738.292Z"/>
	<path fill="#944155" d="M346.611 743.289C347.588 744.548 348.758 745.84 349.49 747.248C340.608 751.4 330.996 759.584 322.742 765.317L291.64 787.112C285.426 791.528 278.886 795.826 273.171 800.875C271.608 799.66 270.21 797.996 268.807 796.586C280.385 790.57 291.114 781.371 301.933 774.001L331.685 753.718C336.649 750.317 342.048 747.198 346.611 743.289Z"/>
	<path fill="#E35457" d="M273.171 800.875C278.886 795.826 285.426 791.528 291.64 787.112L322.742 765.317C330.996 759.584 340.608 751.4 349.49 747.248C351.793 748.368 354.488 749.383 356.551 750.889C335.324 768.23 311.274 782.257 289.021 798.324C285.753 800.682 282.395 803.624 278.928 805.641C276.94 804.132 275.064 802.501 273.171 800.875Z"/>
	<path fill="#944155" d="M356.551 750.889L360.857 753.59C353.732 759.447 345.86 764.67 338.331 769.998L302.156 795.551C296.966 799.203 287.12 804.935 283.032 809.122C281.549 808.058 280.256 806.891 278.928 805.641C282.395 803.624 285.753 800.682 289.021 798.324C311.274 782.257 335.324 768.23 356.551 750.889Z"/>
	<path fill="#E35457" d="M250.101 676.912C251.755 678.123 253.394 679.118 255.218 680.053C257.966 681.08 260.878 680.615 263.514 681.686L268.807 684.886C271.544 685.911 274.342 686.857 276.995 688.083C279.058 688.623 281.047 689.191 283.032 689.972C285.95 690.759 289.097 691.287 291.932 692.296C293.411 693.666 294.983 694.993 296.319 696.501L301.202 700.401C301.89 701.553 302.665 702.695 303.192 703.929C288.751 719.183 247.091 740.226 227.318 756.175C226.139 755.46 225.159 754.498 224.125 753.59C222.36 751.729 221.024 749.381 219.607 747.248L216.997 743.289C214.502 741.233 212.002 739.144 210.159 736.465C210.111 735.829 210.156 735.055 210.159 734.413C207.703 732.223 204.933 730.173 203.219 727.32C202.247 726.426 201.676 725.437 200.969 724.335C199.619 721.8 198.144 719.38 196.623 716.946C196.068 716.25 195.607 715.488 195.123 714.741C212.139 700.526 235.79 689.449 250.101 676.912Z"/>
	<path fill="#E35457" d="M250.101 676.912C251.755 678.123 253.394 679.118 255.218 680.053C257.966 681.08 260.878 680.615 263.514 681.686L268.807 684.886C271.544 685.911 274.342 686.857 276.995 688.083C275.851 690.131 270.676 692.316 268.457 693.774L233.7 716.862C226.087 721.822 214.967 726.393 210.159 734.413C207.703 732.223 204.933 730.173 203.219 727.32C202.247 726.426 201.676 725.437 200.969 724.335C199.619 721.8 198.144 719.38 196.623 716.946C196.068 716.25 195.607 715.488 195.123 714.741C212.139 700.526 235.79 689.449 250.101 676.912Z"/>
	<path fill="#E35457" d="M250.101 676.912C251.755 678.123 253.394 679.118 255.218 680.053C257.966 681.08 260.878 680.615 263.514 681.686C255.166 689.5 238.52 699.079 228.542 705.774L210.087 718.204C207.121 720.206 204.091 722.615 200.969 724.335C199.619 721.8 198.144 719.38 196.623 716.946C196.068 716.25 195.607 715.488 195.123 714.741C212.139 700.526 235.79 689.449 250.101 676.912Z"/>
	<path fill="#944155" d="M250.101 676.912C251.755 678.123 253.394 679.118 255.218 680.053C247.927 682.675 197.772 715.725 196.623 716.946C196.068 716.25 195.607 715.488 195.123 714.741C212.139 700.526 235.79 689.449 250.101 676.912Z"/>
	<path fill="#944155" d="M263.514 681.686L268.807 684.886C249.296 696.363 221.682 713.778 203.219 727.32C202.247 726.426 201.676 725.437 200.969 724.335C204.091 722.615 207.121 720.206 210.087 718.204L228.542 705.774C238.52 699.079 255.166 689.5 263.514 681.686Z"/>
	<path fill="#E35457" d="M276.995 688.083C279.058 688.623 281.047 689.191 283.032 689.972C285.95 690.759 289.097 691.287 291.932 692.296C268.881 711.864 239.753 723.566 216.997 743.289C214.502 741.233 212.002 739.144 210.159 736.465C210.111 735.829 210.156 735.055 210.159 734.413C214.967 726.393 226.087 721.822 233.7 716.862L268.457 693.774C270.676 692.316 275.851 690.131 276.995 688.083Z"/>
	<path fill="#944155" d="M276.995 688.083C279.058 688.623 281.047 689.191 283.032 689.972C272.481 691.742 225.659 733.035 210.159 736.465C210.111 735.829 210.156 735.055 210.159 734.413C214.967 726.393 226.087 721.822 233.7 716.862L268.457 693.774C270.676 692.316 275.851 690.131 276.995 688.083Z"/>
	<path fill="#944155" d="M301.202 700.401C301.89 701.553 302.665 702.695 303.192 703.929C288.751 719.183 247.091 740.226 227.318 756.175C226.139 755.46 225.159 754.498 224.125 753.59C230.084 747.516 238.579 742.736 245.649 737.939L280.411 714.477C287.368 709.822 294.523 705.454 301.202 700.401Z"/>
	<path fill="#944155" d="M291.932 692.296C293.411 693.666 294.983 694.993 296.319 696.501C282.095 702.979 231.259 736.374 219.607 747.248L216.997 743.289C239.753 723.566 268.881 711.864 291.932 692.296Z"/>
	<path fill="#E35457" d="M203.219 650.637C203.661 651.313 204.046 651.892 204.601 652.483C207.543 653.879 210.424 655.342 212.995 657.371L216.997 660.077C219.346 661.496 221.689 663.033 224.125 664.293C225.87 665.3 227.735 666.242 229.397 667.375L237.099 670.998C239.379 671.998 241.665 672.972 243.88 674.111L250.101 676.912C235.79 689.449 212.139 700.526 195.123 714.741C193.179 712.078 191.393 709.426 189.743 706.571C189.122 705.803 188.647 704.785 188.142 703.929C186.465 701.66 185.483 699.085 184.404 696.501C183.394 695.244 182.586 693.672 181.733 692.296C180.28 689.897 179.039 687.379 177.757 684.886C177.053 683.963 176.587 682.731 176.069 681.686C174.439 679.242 173.057 676.69 171.659 674.111C171.68 673.073 171.667 672.036 171.659 670.998C179.408 661.549 192.658 657.049 202.839 650.873L203.219 650.637Z"/>
	<path fill="#E35457" d="M203.219 650.637C203.661 651.313 204.046 651.892 204.601 652.483C207.543 653.879 210.424 655.342 212.995 657.371L216.997 660.077C219.346 661.496 221.689 663.033 224.125 664.293C213.898 672.396 193.081 685.62 181.733 692.296C180.28 689.897 179.039 687.379 177.757 684.886C177.053 683.963 176.587 682.731 176.069 681.686C174.439 679.242 173.057 676.69 171.659 674.111C171.68 673.073 171.667 672.036 171.659 670.998C179.408 661.549 192.658 657.049 202.839 650.873L203.219 650.637Z"/>
	<path fill="#E35457" d="M203.219 650.637C203.661 651.313 204.046 651.892 204.601 652.483C207.543 653.879 210.424 655.342 212.995 657.371C201.594 666.482 187.922 673.097 176.069 681.686C174.439 679.242 173.057 676.69 171.659 674.111C171.68 673.073 171.667 672.036 171.659 670.998C179.408 661.549 192.658 657.049 202.839 650.873L203.219 650.637Z"/>
	<path fill="#944155" d="M203.219 650.637C203.661 651.313 204.046 651.892 204.601 652.483C198.613 658.437 179.397 671.087 171.659 674.111C171.68 673.073 171.667 672.036 171.659 670.998C179.408 661.549 192.658 657.049 202.839 650.873L203.219 650.637Z"/>
	<path fill="#944155" d="M212.995 657.371L216.997 660.077C207.579 666.321 185.141 678.631 177.757 684.886C177.053 683.963 176.587 682.731 176.069 681.686C187.922 673.097 201.594 666.482 212.995 657.371Z"/>
	<path fill="#E35457" d="M224.125 664.293C225.87 665.3 227.735 666.242 229.397 667.375L237.099 670.998C221.057 682.264 203.481 691.7 188.142 703.929C186.465 701.66 185.483 699.085 184.404 696.501C183.394 695.244 182.586 693.672 181.733 692.296C193.081 685.62 213.898 672.396 224.125 664.293Z"/>
	<path fill="#944155" d="M224.125 664.293C225.87 665.3 227.735 666.242 229.397 667.375C223.885 670.049 188.198 692.531 184.404 696.501C183.394 695.244 182.586 693.672 181.733 692.296C193.081 685.62 213.898 672.396 224.125 664.293Z"/>
	<path fill="#944155" d="M237.099 670.998C239.379 671.998 241.665 672.972 243.88 674.111C231.549 676.321 203.92 700.478 189.743 706.571C189.122 705.803 188.647 704.785 188.142 703.929C203.481 691.7 221.057 682.264 237.099 670.998Z"/>
	<path fill="#E35457" d="M801.951 622.305L802.539 623.037C811.712 625.572 869.754 581.032 883.527 579.413C883.422 581.765 883.317 584.063 883.527 586.416C882.246 589.749 880.859 593.079 879.891 596.518C874.46 596.706 869.359 601.719 865.036 604.598C854.303 611.745 730.891 682.113 729.677 681.686C733.79 675.205 737.816 668.946 743.148 663.366C749.119 646.916 754.549 649.112 767.66 641.98C779.09 635.762 790.335 627.941 801.951 622.305Z"/>
	<path fill="#944155" d="M801.951 622.305L802.539 623.037C811.712 625.572 869.754 581.032 883.527 579.413C883.422 581.765 883.317 584.063 883.527 586.416L882.578 584.859C879.901 584.624 853.298 602.568 849.55 604.856C842.004 609.463 748.634 662.384 743.148 663.366C749.119 646.916 754.549 649.112 767.66 641.98C779.09 635.762 790.335 627.941 801.951 622.305Z"/>
	<path fill="#E35457" d="M171.659 610.139L173.041 613.862L177.757 622.305L177.757 623.85C180.022 626.17 182.496 628.463 184.404 631.085C185.667 632.619 187.025 634.126 188.142 635.767L192.863 640.981C193.572 642.363 194.314 643.682 195.123 645.008C198.159 646.534 200.78 648.234 203.219 650.637L202.839 650.873C192.658 657.049 179.408 661.549 171.659 670.998C170.146 668.179 167.581 666.167 165.93 663.366L165.93 660.077L161.781 650.637C161.731 649.464 161.753 648.308 161.781 647.135C160.467 644.287 158.597 641.721 157.263 638.839L155.355 633.427C154.607 630.695 153.526 627.973 152.615 625.285L152.615 621.062C153.245 620.916 169.575 611.287 171.659 610.139Z"/>
	<path fill="#E35457" d="M171.659 610.139L173.041 613.862L177.757 622.305L177.757 623.85C180.022 626.17 182.496 628.463 184.404 631.085C177.568 637.32 167.335 639.438 161.781 647.135C160.467 644.287 158.597 641.721 157.263 638.839L155.355 633.427C154.607 630.695 153.526 627.973 152.615 625.285L152.615 621.062C153.245 620.916 169.575 611.287 171.659 610.139Z"/>
	<path fill="#E35457" d="M171.659 610.139L173.041 613.862L177.757 622.305C169.717 624.378 163.258 631.386 155.355 633.427C154.607 630.695 153.526 627.973 152.615 625.285L152.615 621.062C153.245 620.916 169.575 611.287 171.659 610.139Z"/>
	<path fill="#944155" d="M171.659 610.139L173.041 613.862C166.723 617.814 159.728 622.952 152.615 625.285L152.615 621.062C153.245 620.916 169.575 611.287 171.659 610.139Z"/>
	<path fill="#944155" d="M177.757 622.305L177.757 623.85C172.543 631.338 163.676 632.92 157.263 638.839L155.355 633.427C163.258 631.386 169.717 624.378 177.757 622.305Z"/>
	<path fill="#E35457" d="M184.404 631.085C185.667 632.619 187.025 634.126 188.142 635.767L192.863 640.981C183.85 646.887 173.238 652.116 165.93 660.077L161.781 650.637C161.731 649.464 161.753 648.308 161.781 647.135C167.335 639.438 177.568 637.32 184.404 631.085Z"/>
	<path fill="#944155" d="M184.404 631.085C185.667 632.619 187.025 634.126 188.142 635.767C179.012 639.864 170.579 647.145 161.781 650.637C161.731 649.464 161.753 648.308 161.781 647.135C167.335 639.438 177.568 637.32 184.404 631.085Z"/>
	<path fill="#944155" d="M192.863 640.981C193.572 642.363 194.314 643.682 195.123 645.008C187.274 650.224 171.957 658.133 165.93 663.366L165.93 660.077C173.238 652.116 183.85 646.887 192.863 640.981Z"/>
	<path fill="#E35457" d="M885.785 454.271C886.506 457.235 887.101 460.242 887.75 463.224C887.952 465.548 887.897 467.72 887.75 470.04L890.063 480.714L890.063 487.91L890.063 490.291C890.682 494.995 890.408 499.675 890.063 504.391L890.063 518.802C886.555 521.722 876.532 532.518 873.732 533.618C874.109 529.232 873.514 524.834 873.732 520.426L873.732 518.802L872.366 510.973C871.858 508.185 870.815 505.52 869.895 502.845C868.499 499.586 868.312 495.93 867.539 492.485L865.132 490.291C863.366 486.603 861.1 483.806 858.47 480.714C864.249 476.265 871.84 471.069 875.778 464.762C879.201 461.361 882.43 457.744 885.785 454.271Z"/>
	<path fill="#E35457" d="M890.063 487.91L890.063 490.291C890.682 494.995 890.408 499.675 890.063 504.391L890.063 518.802C886.555 521.722 876.532 532.518 873.732 533.618C874.109 529.232 873.514 524.834 873.732 520.426L873.732 518.802L872.366 510.973C871.742 503.599 884.688 492.334 890.063 487.91Z"/>
	<path fill="#E35457" d="M890.063 504.391L890.063 518.802C886.555 521.722 876.532 532.518 873.732 533.618C874.109 529.232 873.514 524.834 873.732 520.426C880.104 515.816 885.012 510.354 890.063 504.391Z"/>
	<path fill="#944155" d="M890.063 490.291C890.682 494.995 890.408 499.675 890.063 504.391C885.012 510.354 880.104 515.816 873.732 520.426L873.732 518.802C879.039 514.316 883.558 505.2 890.063 499.344C890.015 496.326 890.04 493.309 890.063 490.291Z"/>
	<path fill="#E35457" d="M887.75 470.04L890.063 480.714L890.063 487.91C884.688 492.334 871.742 503.599 872.366 510.973C871.858 508.185 870.815 505.52 869.895 502.845C868.499 499.586 868.312 495.93 867.539 492.485C873.488 484.329 881.798 478.28 887.75 470.04Z"/>
	<path fill="#944155" d="M890.063 480.714L890.063 487.91C884.688 492.334 871.742 503.599 872.366 510.973C871.858 508.185 870.815 505.52 869.895 502.845C871.985 501.567 873.783 497.896 875.53 495.948C878.383 492.766 888.788 483.437 890.063 480.714Z"/>
	<path fill="#944155" d="M887.75 463.224C887.952 465.548 887.897 467.72 887.75 470.04C881.798 478.28 873.488 484.329 867.539 492.485L865.132 490.291C870.391 481.131 887.005 473.25 887.75 463.224Z"/>
	<path fill="#E35457" d="M867.539 555.574C874.219 555.515 881.109 556.139 887.75 555.574L887.75 558.856C887.102 561.713 886.165 564.721 885.785 567.612L885.785 571.9C885.032 574.384 884.151 576.897 883.527 579.413C869.754 581.032 811.712 625.572 802.539 623.037L801.951 622.305C815.937 612.663 832.109 597.521 844.814 589.937C846.805 586.889 848.878 583.393 851.551 580.91C857.094 573.702 862.111 566.14 867.539 558.856L867.539 555.574Z"/>
	<path fill="#E35457" d="M867.539 555.574C874.219 555.515 881.109 556.139 887.75 555.574L887.75 558.856C887.102 561.713 886.165 564.721 885.785 567.612C879.409 567.895 869.074 568.487 863.628 572.31C860.386 574.585 856.022 582.24 851.551 580.91C857.094 573.702 862.111 566.14 867.539 558.856L867.539 555.574Z"/>
	<path fill="#944155" d="M867.539 555.574C874.219 555.515 881.109 556.139 887.75 555.574L887.75 558.856C885.332 557.798 875.225 560.895 872.366 561.442C870.498 560.834 869.148 559.971 867.539 558.856L867.539 555.574Z"/>
	<path fill="#944155" d="M851.551 580.91C856.022 582.24 860.386 574.585 863.628 572.31C869.074 568.487 879.409 567.895 885.785 567.612L885.785 571.9C869.267 572.187 856.336 587.224 844.814 589.937C846.805 586.889 848.878 583.393 851.551 580.91Z"/>
	<path fill="#E35457" d="M138.169 555.574C146.721 551.194 175.569 525.191 181.733 530.487L181.733 530.487C178.082 536.343 174.662 542.209 171.659 548.433C171.185 549.826 170.765 551.293 170.206 552.651C168.873 557.666 167.591 562.693 165.93 567.612L165.93 571.9C160.752 575.3 147.403 585.052 142.191 586.416L142.191 583.714C141.426 580.415 140.82 577.096 140.22 573.764L140.22 569.178C139.507 566.605 138.818 564.032 138.169 561.442C138.081 559.499 138.165 557.52 138.169 555.574Z"/>
	<path fill="#E35457" d="M140.22 573.764C146.864 568.816 163.23 556.48 170.206 552.651C168.873 557.666 167.591 562.693 165.93 567.612L165.93 571.9C160.752 575.3 147.403 585.052 142.191 586.416L142.191 583.714C141.426 580.415 140.82 577.096 140.22 573.764Z"/>
	<path fill="#944155" d="M165.93 567.612L165.93 571.9C160.752 575.3 147.403 585.052 142.191 586.416L142.191 583.714C148.286 577.538 158.019 571.244 165.93 567.612Z"/>
	<path fill="#944155" d="M138.169 555.574C146.721 551.194 175.569 525.191 181.733 530.487L181.733 530.487C177.859 530.417 139.74 556.719 138.169 561.442C138.081 559.499 138.165 557.52 138.169 555.574Z"/>
	<path fill="#944155" d="M140.22 569.178L141.365 568.969C147.733 563.033 163.743 552.38 171.659 548.433C171.185 549.826 170.765 551.293 170.206 552.651C163.23 556.48 146.864 568.816 140.22 573.764L140.22 569.178Z"/>
	<path fill="#E35457" d="M165.93 571.9L165.93 575.447L165.93 588.037C166.174 590.942 166.467 593.677 167.161 596.518C167.841 598.882 168.752 601.459 170.206 603.471C170.675 605.676 171.037 607.977 171.659 610.139C169.575 611.287 153.245 620.916 152.615 621.062C151.696 618.582 150.048 616.367 149.058 613.862L149.058 610.139C147.671 607.02 146.424 603.903 145.278 600.688L145.278 596.518C144.083 593.168 143.007 589.879 142.191 586.416C147.403 585.052 160.752 575.3 165.93 571.9Z"/>
	<path fill="#E35457" d="M149.058 610.139L149.632 610.014C154.254 604.628 161.493 600.819 167.161 596.518C167.841 598.882 168.752 601.459 170.206 603.471C170.675 605.676 171.037 607.977 171.659 610.139C169.575 611.287 153.245 620.916 152.615 621.062C151.696 618.582 150.048 616.367 149.058 613.862L149.058 610.139Z"/>
	<path fill="#944155" d="M149.058 610.139L149.632 610.014C154.254 604.628 161.493 600.819 167.161 596.518C167.841 598.882 168.752 601.459 170.206 603.471C164.665 602.92 153.667 610.571 149.058 613.862L149.058 610.139Z"/>
	<path fill="#E35457" d="M145.278 600.688C149.164 597.982 162.075 589.631 165.93 588.037C166.174 590.942 166.467 593.677 167.161 596.518C161.493 600.819 154.254 604.628 149.632 610.014L149.058 610.139C147.671 607.02 146.424 603.903 145.278 600.688Z"/>
	<path fill="#944155" d="M165.93 580.91C165.748 579.048 165.79 577.31 165.93 575.447L165.93 588.037C162.075 589.631 149.164 597.982 145.278 600.688L145.278 596.518C150.384 590.812 159.544 587.737 165.93 580.91Z"/>
	<path fill="#FEFEFE" d="M504.846 245.483C554.175 239.813 629.9 270.257 667.677 298.989C751.784 362.956 790.826 472.454 764.19 574.441C758.188 597.42 755.88 594.695 734.867 605.845C671.245 639.603 582.278 659.373 510.581 664.293C441.595 670.312 362.211 666.679 297.32 642.768C275.483 634.721 274.71 635.448 265.204 613.807C190.243 443.134 317.555 248.284 504.846 245.483Z"/>
	<path fill="#2F3942" d="M686.854 423.517C699.303 423.542 712.028 422.837 724.431 423.517C722.862 429.627 720.674 435.624 718.822 441.659L706.057 482.323L670.415 589.937C657.795 589.558 645.053 589.929 632.42 589.937C628.275 577.016 596.414 494.65 590.99 487.91C587.59 499.576 582.836 510.869 578.577 522.24L552.719 589.937C540.721 590.489 528.453 589.954 516.428 589.937C513.131 575.99 506.651 561.213 501.835 547.605C494.574 527.084 487.8 503.113 477.681 483.862C476.492 471.176 461.842 437.491 457.049 423.517L499.62 423.517C506.302 442.964 528.735 521.666 537.779 535.317C538.926 522.131 568.144 440.598 576.541 423.517C585.971 422.787 595.977 423.48 605.463 423.517C621.465 455.614 634.634 500.918 647.957 535.317L674.399 451.886C676.991 443.854 678.964 423.31 686.854 423.517Z"/>
	<path fill="#2F3942" d="M369.118 423.517C382.127 422.893 395.456 423.504 408.499 423.517C435.583 478.145 459.219 534.521 484.646 589.937L439.848 589.937C435.987 581.467 432.383 572.695 429.046 564.004C423.25 563.877 417.424 564.002 411.625 564.004L349.49 564.004C345.729 572.435 341.387 580.983 339.041 589.937L293.404 589.937C296.635 581.775 300.524 573.766 304.092 565.735L357.681 447.089C361.156 439.257 364.231 430.549 369.118 423.517Z"/>
	<path fill="#FEFEFE" d="M389.45 470.04C393.161 475.35 395.392 483.423 397.94 489.486L415.303 530.487L389.45 530.487L363.524 530.487C367.372 520.119 383.365 477.534 389.45 470.04Z"/>
	<path fill="#F18071" d="M441.47 272.216C446.045 270.487 451.154 272.801 452.872 277.379C454.591 281.957 452.266 287.061 447.684 288.77C443.116 290.473 438.031 288.158 436.318 283.593C434.605 279.029 436.91 273.939 441.47 272.216Z"/>
	<path fill="#F18071" d="M564.953 271.811C569.668 271.666 573.627 275.33 573.846 280.042C574.065 284.753 570.463 288.769 565.756 289.062C562.644 289.256 559.67 287.757 557.974 285.142C556.278 282.526 556.123 279.199 557.569 276.437C559.015 273.675 561.837 271.907 564.953 271.811Z"/>
	<path fill="#F18071" d="M503.142 268.514C514.631 267.969 517.514 281.806 506.552 285.039C494.185 286.487 492.784 273.623 503.142 268.514Z"/>
	<path fill="#F18071" d="M588.641 296.857C599.117 297.032 597.25 307.347 590.99 311.944C579.796 311.548 579.356 300.713 588.641 296.857Z"/>
	<path fill="#F18071" d="M473.9 284.555C476.314 283.826 478.935 284.452 480.759 286.195C482.583 287.937 483.328 290.526 482.71 292.971C482.093 295.417 480.207 297.341 477.775 298.009C474.079 299.022 470.256 296.877 469.195 293.195C468.135 289.512 470.231 285.662 473.9 284.555Z"/>
	<path fill="#F18071" d="M535.335 262.155C539.136 261.468 542.77 264.005 543.435 267.81C544.101 271.615 541.543 275.235 537.734 275.878C533.956 276.516 530.372 273.984 529.712 270.21C529.052 266.435 531.564 262.837 535.335 262.155Z"/>
	<path fill="#F18071" d="M471.346 262.026C482.534 261.064 484.17 269.973 476.564 276.165C467.194 275.525 464.507 267.868 471.346 262.026Z"/>
	<path fill="#E35457" d="M534.07 285.039C544.086 284.619 545.07 296.216 535.927 298.425C525.966 297.57 525.939 288.538 534.07 285.039Z"/>
	<path fill="#F18071" d="M647.957 314.643C657.682 312.213 659.18 320.67 653.054 326.143C644.294 327.957 639.62 318.387 647.957 314.643Z"/>
	<path fill="#F18071" d="M423.103 296.366C424.958 295.179 427.318 295.116 429.234 296.202C431.151 297.288 432.31 299.345 432.245 301.547C432.181 303.748 430.905 305.734 428.928 306.706C426.099 308.099 422.674 307.039 421.126 304.291C419.578 301.543 420.445 298.065 423.103 296.366Z"/>
	<path fill="#F18071" d="M373.935 309.06C377.066 308.147 380.344 309.938 381.269 313.064C382.194 316.191 380.416 319.477 377.293 320.414C374.153 321.356 370.845 319.566 369.915 316.422C368.985 313.278 370.788 309.978 373.935 309.06Z"/>
	<path fill="#F18071" d="M673.836 343.256C676.827 342.341 679.997 344.007 680.94 346.99C681.882 349.972 680.246 353.157 677.273 354.127C674.26 355.111 671.024 353.448 670.068 350.426C669.113 347.404 670.806 344.183 673.836 343.256Z"/>
	<path fill="#F18071" d="M599.347 279.548C602.099 278.659 605.055 280.137 605.996 282.871C606.938 285.605 605.517 288.589 602.802 289.583C600.998 290.243 598.979 289.877 597.521 288.626C596.064 287.375 595.396 285.435 595.775 283.552C596.153 281.669 597.52 280.138 599.347 279.548Z"/>
	<path fill="#F18071" d="M623.779 297.351C626.487 296.763 629.17 298.44 629.827 301.132C630.485 303.824 628.877 306.549 626.203 307.276C624.411 307.763 622.496 307.239 621.201 305.908C619.906 304.577 619.435 302.649 619.97 300.871C620.506 299.092 621.964 297.745 623.779 297.351Z"/>
	<path fill="#F18071" d="M398.338 289.222C404.52 288.885 406.258 294.574 402.14 298.425C395.513 299.648 392.913 292.517 398.338 289.222Z"/>
	<path fill="#F18071" d="M346.611 336.014C353.176 335.573 356.054 339.288 351.651 344.254C345.103 344.965 341.965 340.816 346.611 336.014Z"/>
	<path fill="#F18071" d="M611.061 324.903C613.472 324.446 615.797 326.034 616.248 328.446C616.699 330.859 615.105 333.18 612.691 333.624C610.286 334.067 607.977 332.48 607.527 330.077C607.078 327.673 608.658 325.359 611.061 324.903Z"/>
	<path fill="#F18071" d="M695.967 375.252C697.705 374.94 699.375 376.073 699.728 377.804C700.08 379.535 698.986 381.231 697.264 381.624C696.113 381.886 694.911 381.504 694.122 380.627C693.333 379.749 693.082 378.513 693.465 377.397C693.848 376.281 694.805 375.46 695.967 375.252Z"/>
	<path fill="#F18071" d="M642.582 349.449C646.348 349.576 648.672 350.251 647.957 354.361C644.048 354.636 641.331 353.695 642.582 349.449Z"/>
	<path fill="#F18071" d="M451.955 315.171C452.774 314.811 453.725 314.925 454.436 315.471C455.146 316.016 455.502 316.905 455.365 317.79C455.228 318.675 454.619 319.414 453.777 319.719C452.535 320.169 451.159 319.553 450.667 318.326C450.176 317.1 450.745 315.704 451.955 315.171Z"/>
	<path fill="#F18071" d="M405.077 325.719C406.121 324.961 407.583 325.2 408.332 326.251C409.081 327.301 408.829 328.761 407.773 329.5C406.728 330.231 405.29 329.984 404.551 328.946C403.811 327.908 404.046 326.468 405.077 325.719Z"/>
	<path fill="#F18071" d="M554.749 316.853C555.442 316.007 556.672 315.843 557.562 316.477C558.452 317.112 558.698 318.329 558.123 319.259C557.716 319.918 556.976 320.296 556.204 320.239C555.431 320.182 554.755 319.699 554.449 318.988C554.143 318.276 554.259 317.453 554.749 316.853Z"/>
	<path fill="#4FD1C5" d="M778.438 435.612C783.243 436.863 796.042 445.187 801.18 448.418C971.737 555.656 723.738 653.959 628.986 674.736C519.041 698.844 324.356 711.939 227.468 649.779C183.13 621.334 164.865 583.402 195.123 536.584C200.976 526.542 217.162 509.227 227.318 502.845C227.446 506.425 227.572 509.955 227.318 513.532C196.13 552.855 194.896 594.548 235.913 626.813C361.714 725.771 722.676 681.546 813.389 564.899C848.003 520.388 820.714 480.9 782.76 451.617C780.891 446.505 779.862 440.882 778.438 435.612Z"/>
	<path fill="#E35457" d="M787.831 474.291C817.361 502.38 821.31 533.008 793.499 564.004C789.811 567.996 785.902 572.972 781.003 575.447C793.097 530.302 785.953 513.981 787.831 474.291Z"/>
	<path fill="#E35457" d="M233.503 567.612C234.383 570.908 235.779 574.012 237.099 577.149L237.099 580.91C238.108 583.88 238.969 587.064 240.205 589.937L240.205 592.964C236.354 595.092 232.589 597.65 229.397 600.688L227.318 597.791C226.153 595.228 225.171 592.552 224.125 589.937L222.458 586.416C221.388 583.344 220.402 580.304 219.607 577.149C224.098 575.76 230.65 571.293 233.503 567.612Z"/>
	<path fill="#E35457" d="M237.099 580.91C238.108 583.88 238.969 587.064 240.205 589.937L240.205 592.964C236.354 595.092 232.589 597.65 229.397 600.688L227.318 597.791C226.153 595.228 225.171 592.552 224.125 589.937C227.787 586.571 232.726 583.248 237.099 580.91Z"/>
	<path fill="#944155" d="M227.318 597.791C231.436 594.952 235.567 591.861 240.205 589.937L240.205 592.964C236.354 595.092 232.589 597.65 229.397 600.688L227.318 597.791Z"/>
	<path fill="#944155" d="M237.099 577.149L237.099 580.91C232.726 583.248 227.787 586.571 224.125 589.937L222.458 586.416C226.216 581.854 232.905 580.896 237.099 577.149Z"/>
	<path fill="#E35457" d="M229.397 545.638L231.258 552.651C231.24 554.713 231.157 556.797 231.258 558.856C232.048 560.557 232.855 562.242 233.503 564.004L233.503 567.612C230.65 571.293 224.098 575.76 219.607 577.149L219.607 573.764C219.343 570.397 219.24 567.368 219.607 564.004L219.607 558.856C220.547 555.466 221.928 551.203 224.125 548.433C225.148 547.515 225.951 547.035 227.227 546.524L229.397 545.638Z"/>
	<path fill="#E35457" d="M229.397 545.638L231.258 552.651C231.24 554.713 231.157 556.797 231.258 558.856C226.948 559.906 223.683 562.85 219.607 564.004L219.607 558.856C220.547 555.466 221.928 551.203 224.125 548.433C225.148 547.515 225.951 547.035 227.227 546.524L229.397 545.638Z"/>
	<path fill="#944155" d="M231.258 552.651C231.24 554.713 231.157 556.797 231.258 558.856C226.948 559.906 223.683 562.85 219.607 564.004L219.607 558.856L220.162 559.42C221.633 558.937 230.631 553.671 231.258 552.651Z"/>
	<path fill="#944155" d="M233.503 564.004L233.503 567.612C230.65 571.293 224.098 575.76 219.607 577.149L219.607 573.764C223.151 571.971 231.569 567.258 233.503 564.004Z"/>
	<path fill="#E35457" d="M240.205 592.964C241.466 595.499 242.836 598.057 243.88 600.688C244.306 602.065 244.82 603.473 245.156 604.871C249.051 614.11 247.139 618.488 238.182 610.139L235.003 607.27C233.024 605.146 231.197 602.964 229.397 600.688C232.589 597.65 236.354 595.092 240.205 592.964Z"/>
	<path fill="#E35457" d="M238.182 610.139C240.348 608.25 242.843 606.588 245.156 604.871C249.051 614.11 247.139 618.488 238.182 610.139Z"/>
	<path fill="#944155" d="M243.88 600.688C244.306 602.065 244.82 603.473 245.156 604.871C242.843 606.588 240.348 608.25 238.182 610.139L235.003 607.27C237.676 604.788 240.394 601.932 243.88 600.688Z"/>
	<path fill="#FEFEFE" d="M683.196 691.36C689.832 691.603 690.665 695.974 686.854 700.401C679.378 701.315 679.17 695.998 683.196 691.36Z"/>
	<path fill="#E35457" d="M224.125 548.433C224.359 544.139 225.748 540.526 227.318 536.584C228.202 539.584 228.822 542.566 229.397 545.638L227.227 546.524C225.951 547.035 225.148 547.515 224.125 548.433Z"/>
	<path fill="#E35457" d="M250.101 613.862C250.784 615.945 251.506 618.969 251.185 621.135L250.101 621.062C246.027 617.803 245.326 616.346 250.101 613.862Z"/>
	<defs>
		<linearGradient id="gradient_1" gradientUnits="userSpaceOnUse" x1="889.49139" y1="520.83618" x2="873.90576" y2="543.61963">
			<stop offset="0" stop-color="#8D3C57"/>
			<stop offset="1" stop-color="#BB505E"/>
		</linearGradient>
	</defs>
	<path fill="url(#gradient_1)" d="M890.063 518.802L890.063 523.971L890.063 536.584C889.762 540.578 889.848 544.435 890.063 548.433C889.257 550.8 888.399 553.158 887.75 555.574C881.109 556.139 874.219 555.515 867.539 555.574C868.885 551.546 870.466 547.863 872.366 544.064C872.515 540.623 872.382 536.838 873.732 533.618C876.532 532.518 886.555 521.722 890.063 518.802Z"/>
	<path fill="#E35457" d="M890.063 536.584C889.762 540.578 889.848 544.435 890.063 548.433C889.257 550.8 888.399 553.158 887.75 555.574C881.109 556.139 874.219 555.515 867.539 555.574C868.885 551.546 870.466 547.863 872.366 544.064C874.834 544.608 877.387 545.347 879.891 545.638C880.867 543.801 882.42 542.303 883.527 540.523C885.537 538.944 887.815 537.777 890.063 536.584Z"/>
	<path fill="#944155" d="M890.063 536.584C889.762 540.578 889.848 544.435 890.063 548.433C888.66 543.873 883.414 546.342 879.891 545.638C880.867 543.801 882.42 542.303 883.527 540.523C885.537 538.944 887.815 537.777 890.063 536.584Z"/>
	<path fill="#E35457" d="M878.354 535.317C882.049 531.281 886.2 527.825 890.063 523.971L890.063 536.584C887.815 537.777 885.537 538.944 883.527 540.523C881.712 539.044 880.037 536.983 878.354 535.317Z"/>
</svg>
